<?xml version="1.0" encoding="utf-8"?>
<!-- Generator: Adobe Illustrator 24.2.1, SVG Export Plug-In . SVG Version: 6.00 Build 0)  -->
<svg version="1.1" id="Layer_1" xmlns="http://www.w3.org/2000/svg" xmlns:xlink="http://www.w3.org/1999/xlink" x="0px" y="0px"
	 viewBox="0 0 1940 210" style="enable-background:new 0 0 1940 210;" xml:space="preserve">
<style type="text/css">
	.st0{fill:#5A310C;}
	.st1{fill:#F5B81A;}
	.st2{fill:#49270B;}
	.st3{fill:#D69A13;}
	.st4{fill:#F4E190;}
	.st5{fill:#FFDC22;}
	.st6{fill:#C4A41A;}
</style>
<g>
	<rect x="-0.6" y="-0.7" class="st0" width="1942.5" height="210.7"/>
</g>
<rect x="393" y="-0.7" class="st1" width="1155.4" height="210.7"/>
<rect x="-0.6" y="-0.7" class="st0" width="54.6" height="210.7"/>
<rect x="-0.6" y="-0.7" class="st2" width="54.6" height="210.7"/>
<rect x="1887.3" y="-0.7" class="st2" width="54.6" height="210.7"/>
<rect x="1548.4" y="-0.7" class="st3" width="54.6" height="210.7"/>
<path class="st2" d="M125.3,21.8c-12.5,17.7,0,48.9,8.8,50c7.4,0.9,10.9-19.9,23.8-20.2c11.1-0.3,22.5,14.9,26.3,26
	c0.9,2.7,2.5,7.5,1.7,13.4c-1.4,11-10,18.3-13.5,21.4c-14.3,12.9-31.9,39.7-28.3,58.6c3.8,20.8,35.5,41,57.6,32
	c11-4.5,18.8-16.1,20.9-27.5c4.1-23.2-15.4-31.2-21.4-58.8c-7.1-32.7,9.7-70.2,32.1-74.9c8.9-1.8,11.6,2.9,27.5,4.2
	c26.7,2.2,56.8-7.9,56.6-15.1C317.1,20.5,154.7-19.7,125.3,21.8z"/>
<rect x="338.4" y="-0.7" class="st3" width="54.6" height="210.7"/>
<ellipse class="st2" cx="970.7" cy="9.8" rx="971.3" ry="48.7"/>
<path class="st4" d="M117,11.6c-11.7,17.7-0.5,50.3,7.8,51.3c6.9,0.8,10.4-20.5,22.5-21c10.5-0.4,20.9,15.2,24.5,26.5
	c0.9,2.8,2.3,7.7,1.5,13.7c-1.4,11.1-9.3,18.5-12.7,22c-13.9,14.4-24,39.4-19.8,57.5c4.7,20.2,28.8,40.1,46.5,35.3
	c15.4-4.2,19.6-27,19.8-28.5c4.1-23.9-15.5-31.2-19.6-60.2C183.1,77.4,199,41.4,219,36.4c9.6-2.4,14.3,3.8,31.4,2
	c12.1-1.3,30.1-6.5,30.4-12C281.3,10.9,143.2-27.6,117,11.6z"/>
<path class="st2" d="M1756,147.8c-1.6-0.1-1.9,9.2-9,20c-7.1,10.8-13.1,10.9-15,18c-2.8,10.1,5.9,23.2,16.5,23.9
	c8.6,0.6,18.2-6.9,20.9-13.9c1.6-4.1-0.9-10.3-6-23c-3.1-7.8-5-10.5-6-17C1756.7,151.1,1756.9,147.9,1756,147.8z"/>
<path class="st2" d="M1709.2,29.2c-0.8,8.1,30.4,6.8,45.8,30.7c17.4,26.8,2.3,65.1,4.8,65.5c1.4,0.2,6.6-14.3,9.1-34.1
	c3.6-28.5-2.2-35.3,3.3-47.6c11-24.7,48.7-26.4,47.2-30.7C1816.9,5.1,1710.7,13.3,1709.2,29.2z"/>
<ellipse class="st5" cx="971.2" cy="-0.2" rx="975.8" ry="38.6"/>
<path class="st6" d="M125.9,13.3c-14.3,15.7-6.1,48.4,2,50.2c4.9,1.1,8.5-11.8,18.2-12c8.5-0.1,16.4,9.6,19.4,17.8
	c2.3,6.3,1.8,11.8,1.5,13.7c-1.4,11.1-9.3,18.5-12.7,22c-13.9,14.4-24,39.4-19.8,57.5c4.7,20.2,28.8,40.1,46.5,35.3
	c15.4-4.2,19.6-27,19.8-28.5c4-23.9-14.2-31.9-19.6-60.2c-6.1-31.8,10.5-68.1,30.8-77.2c3.6-1.6,14-5.2,21.2-7.6
	c18.2-6,23.3-6.3,23.3-8c0.1-5-45.9-8.8-76.9-10C137.9,4.7,130.6,8.1,125.9,13.3z"/>
<path class="st5" d="M119.8,13.3c-11.3,18.3-0.6,50.3,7.1,51.2c6.5,0.8,9.9-20.5,21.2-21.1c9.8-0.5,19.6,15,22.9,26.4
	c0.8,2.8,2.1,7.6,1.4,13.7c-1.4,11.1-8.9,18.5-12.1,22.1c-13.1,14.5-22.8,39.5-18.9,57.6c4.2,20.1,26.9,39.9,43.6,35.1
	c14.6-4.2,18.6-27.1,18.8-28.6c3.9-23.9-13.2-31.8-18.1-60.1c-5.9-33.5,9.5-72.3,29.3-77.3c7.9-2,10.2,2.8,24.3,4
	c23.6,1.9,50.2-8.8,50.2-16.3C289.3,9.6,146.4-29.6,119.8,13.3z"/>
<path class="st4" d="M1683.9,18c-0.2,9.6,34.9,6.1,53.4,32.1s7.9,63.3,10.3,63.5c1.5,0.1,5.8-14,5.8-30.7c0,0,0-38.2,2.4-46.2
	c0.4-1.5,0.6-1.4,1.4-3.6c4.5-11.5,9.5-24.6,6.5-29.8C1756.2-9.5,1684.2,4.1,1683.9,18z"/>
<path class="st5" d="M1697.1,18.4c-0.8,8.1,30.4,6.8,45.8,30.7c17.4,26.8,2.3,65.1,4.8,65.5c1.4,0.2,6.6-14.3,9.1-34.1
	c3.6-28.5-2.2-35.3,3.3-47.6c11-24.7,48.7-26.4,47.2-30.6C1804.6-5.7,1698.6,2.7,1697.1,18.4z"/>
<path class="st6" d="M1744.6,138.7c-1.5,0.1-0.2,9.5-4.9,20.3c-4.6,10.5-10.1,10.4-11.7,18.1c-2.2,10.2,4.6,23.4,13,24.1
	c6.8,0.6,14.3-6.9,16.4-14c1.2-4.1-0.7-10.4-4.7-23.1c-2-6.4-1.9-5.7-3.9-12.7C1746.2,142.4,1745.7,138.7,1744.6,138.7z"/>
<path class="st4" d="M1744.6,138.7c-1.4-0.3-2.8,8.3-8.3,19.3c-5.8,11.5-8.9,11.6-10.1,18.1c-1.9,10.2,3.9,23.4,11.1,24.1
	c5.8,0.6,12.3-6.9,14.2-14c1.6-6.1-1.9-6.7-4-23.1c-1.6-12.1-1.8-16.3-1.8-16.3C1745.3,141.6,1745.3,138.8,1744.6,138.7z"/>
<path class="st5" d="M1744.6,138.7c-1-0.1-1.3,9.2-6.1,20.1c-4.9,10.9-8.8,10.9-10.1,18.1c-1.9,10.2,3.9,23.4,11.1,24.1
	c5.8,0.6,12.3-6.9,14.2-14c1.1-4.1-0.6-10.4-4-23.1c-2.1-7.8-3.3-10.6-4-17.1C1745.1,142.1,1745.2,138.8,1744.6,138.7z"/>
<path class="st4" d="M1748.7,186.5c2.6-4.3,2.2-8.2,2.3-8.2c0.2,0,1.2,10.2-4.7,16.4c-0.9,0.9-2.6,2.6-5,2.6c-4.4,0-7.4-5.6-6.9-6.2
	c0.4-0.4,2,1.9,5.1,2C1744.5,193.1,1748.3,187.1,1748.7,186.5z"/>
<path class="st2" d="M99.6,29.6c0.1,2-22.1-1.2-35.7,11.4c-14.9,13.8-7.7,35.5-12,36.1c-5.1,0.7-23.2-26.8-10.6-43.3
	C55.8,14.9,99.5,26.8,99.6,29.6z"/>
<path class="st2" d="M1842.9,28.5c-0.1,2,22.1-1.2,35.7,11.4c14.9,13.8,7.7,35.5,12,36.1c5.1,0.7,23.2-26.8,10.6-43.3
	C1886.7,13.8,1843,25.7,1842.9,28.5z"/>
</svg>
