<?xml version="1.0" encoding="utf-8"?>
<!-- Generator: Adobe Illustrator 24.2.1, SVG Export Plug-In . SVG Version: 6.00 Build 0)  -->
<svg version="1.1" id="Layer_1" xmlns="http://www.w3.org/2000/svg" xmlns:xlink="http://www.w3.org/1999/xlink" x="0px" y="0px"
	 viewBox="0 0 650 65" style="enable-background:new 0 0 650 65;" xml:space="preserve">
<style type="text/css">
	.st0{fill:#D8B41E;}
	.st1{fill:#FFDC22;}
	.st2{fill:#FFED9F;}
</style>
<path class="st0" d="M653,25c0.5,4.5-94.1,22.2-200.5,29C442,54.7,274.7,63.3,273,48c-1.6-14.2,139.1-54.3,230-29
	c5.7,1.6,17.1,5.1,34,8C602.9,38.5,652.9,24.4,653,25z"/>
<path class="st1" d="M650,65H0c0-14,0-28,0-42C29.7,13.7,54.7,8.8,72.1,6C150-6.3,213.5,2.8,263,10c84.4,12.2,72.2,21.4,147.3,30
	c80.6,9.3,135.1,3.4,159.5,0c33-4.5,60.3-11.3,80.2-17C650,37,650,51,650,65z"/>
<path class="st2" d="M-2,24C-2.1,23.4,46.7,7.9,99,2c66.9-7.5,126,2.4,126,3c0,0.1-2.4,0-7,0c-26.5,0.2-47.3,6.3-53,8
	c-28.8,8.7-34.7,14.9-57.3,17.3C103,30.8,98,30.8,92,30c-21.1-2.8-29.7-12.2-56-12c-4.8,0-11.1,2-34.9,5.6C-1,23.9-2,24.1-2,24z"/>
<path class="st1" d="M447,19c0.4,2.7-4.2,4.3-4,9c0.1,2.3,1.2,3.9,2,5c4,5.8,11.8,6.4,12,6c0.1-0.3-4.3-1-7-5c-2-2.9-2-6-2-7
	c0.1-5.7,4.3-9.4,5-10c9-7.4,24-2.8,24-3c0-0.1-6.5-2.1-27-3c-27.3-1.2-47,1-47,1c0,0,8.9-1,21,0C427.7,12.3,446.2,13.8,447,19z"/>
<path class="st2" d="M639.4,42.5c-3.8,3.1-7.5,6.1-12,5.4c-3.8-0.6-7.3-3.5-6.9-5.1c0.5-1.7,5.4-0.2,12.8-2.3
	c7.9-2.2,12.2-6.7,12.8-5.9C646.7,35.2,643.2,39.4,639.4,42.5z"/>
<path class="st2" d="M308.9,23.6c5.9,1.2,10.3,3,12.5,4c10.9,5,18.9,12.9,18.2,13.9c-0.7,1.1-10.4-7.2-27.6-12.3
	c-16.5-4.9-28.4-3.5-28.4-4.7C283.6,23.3,295.9,21,308.9,23.6z"/>
<path class="st2" d="M121.5,43.8c-5.7,1.8-10.5,2.3-12.9,2.4c-11.9,0.8-22.8-2.3-22.6-3.5c0.1-1.3,12.5,1.3,30.1-2.3
	C133,36.9,142.7,30,143.3,31C143.9,32.1,134.2,39.9,121.5,43.8z"/>
<path class="st2" d="M410,43.3c0.5-1.7,69,12.7,151,0c15.4-2.4,31.8-5.8,32-5.3c0.3,0.7-33,11-72,14.6
	C459.4,58.3,409.6,44.8,410,43.3z"/>
</svg>
